<mxfile host="65bd71144e">
    <diagram id="x-RhRetD2wPBDzEULJs6" name="PÃ¡gina-1">
        <mxGraphModel dx="1501" dy="328" grid="1" gridSize="10" guides="1" tooltips="1" connect="1" arrows="1" fold="1" page="1" pageScale="1" pageWidth="827" pageHeight="1169" math="0" shadow="0">
            <root>
                <mxCell id="0"/>
                <mxCell id="1" parent="0"/>
                <mxCell id="4" value="" style="edgeStyle=none;html=1;" edge="1" parent="1" source="2" target="3">
                    <mxGeometry relative="1" as="geometry"/>
                </mxCell>
                <mxCell id="2" value="inicio" style="ellipse;whiteSpace=wrap;html=1;fillColor=#003366;" vertex="1" parent="1">
                    <mxGeometry x="170" width="110" height="70" as="geometry"/>
                </mxCell>
                <mxCell id="6" value="" style="edgeStyle=none;html=1;" edge="1" parent="1" source="3" target="5">
                    <mxGeometry relative="1" as="geometry"/>
                </mxCell>
                <mxCell id="3" value="peso&lt;br&gt;altura" style="shape=parallelogram;perimeter=parallelogramPerimeter;whiteSpace=wrap;html=1;fixedSize=1;fillColor=#CC6600;" vertex="1" parent="1">
                    <mxGeometry x="165" y="120" width="120" height="60" as="geometry"/>
                </mxCell>
                <mxCell id="8" value="" style="edgeStyle=none;html=1;" edge="1" parent="1" source="5" target="7">
                    <mxGeometry relative="1" as="geometry"/>
                </mxCell>
                <mxCell id="5" value="(imc=peso[*g]&lt;br&gt;altura2[m]" style="whiteSpace=wrap;html=1;fillColor=#66B2FF;" vertex="1" parent="1">
                    <mxGeometry x="165" y="230" width="120" height="60" as="geometry"/>
                </mxCell>
                <mxCell id="7" value="imc &amp;lt; 16" style="rhombus;whiteSpace=wrap;html=1;fillColor=#FF66FF;" vertex="1" parent="1">
                    <mxGeometry x="180" y="340" width="85" height="80" as="geometry"/>
                </mxCell>
                <mxCell id="9" value="" style="endArrow=none;html=1;" edge="1" parent="1">
                    <mxGeometry width="50" height="50" relative="1" as="geometry">
                        <mxPoint x="110" y="380" as="sourcePoint"/>
                        <mxPoint x="180" y="380" as="targetPoint"/>
                    </mxGeometry>
                </mxCell>
                <mxCell id="10" value="" style="endArrow=none;html=1;" edge="1" parent="1">
                    <mxGeometry width="50" height="50" relative="1" as="geometry">
                        <mxPoint x="110" y="450" as="sourcePoint"/>
                        <mxPoint x="110" y="380" as="targetPoint"/>
                    </mxGeometry>
                </mxCell>
                <mxCell id="12" value="imc &amp;lt;=17" style="rhombus;whiteSpace=wrap;html=1;fillColor=#FF66FF;" vertex="1" parent="1">
                    <mxGeometry x="70" y="450" width="80" height="80" as="geometry"/>
                </mxCell>
                <mxCell id="13" value="" style="endArrow=none;html=1;" edge="1" parent="1">
                    <mxGeometry width="50" height="50" relative="1" as="geometry">
                        <mxPoint y="489.5" as="sourcePoint"/>
                        <mxPoint x="70" y="489.5" as="targetPoint"/>
                        <Array as="points">
                            <mxPoint y="489.5"/>
                        </Array>
                    </mxGeometry>
                </mxCell>
                <mxCell id="14" value="" style="endArrow=none;html=1;" edge="1" parent="1">
                    <mxGeometry width="50" height="50" relative="1" as="geometry">
                        <mxPoint y="560" as="sourcePoint"/>
                        <mxPoint y="490" as="targetPoint"/>
                    </mxGeometry>
                </mxCell>
                <mxCell id="15" value="imc&amp;lt;=18" style="rhombus;whiteSpace=wrap;html=1;fillColor=#FF66FF;" vertex="1" parent="1">
                    <mxGeometry x="-40" y="560" width="80" height="80" as="geometry"/>
                </mxCell>
                <mxCell id="16" value="" style="endArrow=none;html=1;" edge="1" parent="1">
                    <mxGeometry width="50" height="50" relative="1" as="geometry">
                        <mxPoint x="-110" y="599.5" as="sourcePoint"/>
                        <mxPoint x="-40" y="599.5" as="targetPoint"/>
                        <Array as="points"/>
                    </mxGeometry>
                </mxCell>
                <mxCell id="17" value="" style="endArrow=none;html=1;" edge="1" parent="1">
                    <mxGeometry width="50" height="50" relative="1" as="geometry">
                        <mxPoint x="-110" y="670" as="sourcePoint"/>
                        <mxPoint x="-110" y="600" as="targetPoint"/>
                    </mxGeometry>
                </mxCell>
                <mxCell id="18" value="imc&amp;lt;=25" style="rhombus;whiteSpace=wrap;html=1;fillColor=#FF66FF;" vertex="1" parent="1">
                    <mxGeometry x="-150" y="670" width="80" height="80" as="geometry"/>
                </mxCell>
                <mxCell id="22" value="" style="endArrow=none;html=1;" edge="1" parent="1">
                    <mxGeometry width="50" height="50" relative="1" as="geometry">
                        <mxPoint x="-220" y="709.5" as="sourcePoint"/>
                        <mxPoint x="-150" y="709.5" as="targetPoint"/>
                        <Array as="points"/>
                    </mxGeometry>
                </mxCell>
                <mxCell id="23" value="" style="endArrow=none;html=1;" edge="1" parent="1">
                    <mxGeometry width="50" height="50" relative="1" as="geometry">
                        <mxPoint x="-220" y="780" as="sourcePoint"/>
                        <mxPoint x="-220" y="710" as="targetPoint"/>
                    </mxGeometry>
                </mxCell>
                <mxCell id="24" value="imc&amp;lt;=30" style="rhombus;whiteSpace=wrap;html=1;fillColor=#FF66FF;" vertex="1" parent="1">
                    <mxGeometry x="-260" y="780" width="80" height="80" as="geometry"/>
                </mxCell>
                <mxCell id="25" value="" style="endArrow=none;html=1;" edge="1" parent="1">
                    <mxGeometry width="50" height="50" relative="1" as="geometry">
                        <mxPoint x="-330" y="819.5" as="sourcePoint"/>
                        <mxPoint x="-260" y="819.5" as="targetPoint"/>
                        <Array as="points"/>
                    </mxGeometry>
                </mxCell>
                <mxCell id="26" value="" style="endArrow=none;html=1;" edge="1" parent="1">
                    <mxGeometry width="50" height="50" relative="1" as="geometry">
                        <mxPoint x="-330" y="890" as="sourcePoint"/>
                        <mxPoint x="-330" y="820" as="targetPoint"/>
                    </mxGeometry>
                </mxCell>
                <mxCell id="27" value="imc&amp;lt;=35" style="rhombus;whiteSpace=wrap;html=1;fillColor=#FF66FF;" vertex="1" parent="1">
                    <mxGeometry x="-370" y="890" width="80" height="80" as="geometry"/>
                </mxCell>
                <mxCell id="28" value="" style="endArrow=none;html=1;" edge="1" parent="1">
                    <mxGeometry width="50" height="50" relative="1" as="geometry">
                        <mxPoint x="-440" y="929.5" as="sourcePoint"/>
                        <mxPoint x="-370" y="929.5" as="targetPoint"/>
                        <Array as="points"/>
                    </mxGeometry>
                </mxCell>
                <mxCell id="30" value="" style="endArrow=none;html=1;" edge="1" parent="1">
                    <mxGeometry width="50" height="50" relative="1" as="geometry">
                        <mxPoint x="-440" y="1000" as="sourcePoint"/>
                        <mxPoint x="-440" y="930" as="targetPoint"/>
                    </mxGeometry>
                </mxCell>
                <mxCell id="31" value="imc&amp;lt;=40" style="rhombus;whiteSpace=wrap;html=1;fillColor=#FF66FF;" vertex="1" parent="1">
                    <mxGeometry x="-480" y="1000" width="80" height="80" as="geometry"/>
                </mxCell>
                <mxCell id="32" value="" style="endArrow=none;html=1;" edge="1" parent="1">
                    <mxGeometry width="50" height="50" relative="1" as="geometry">
                        <mxPoint x="-550" y="1039.5" as="sourcePoint"/>
                        <mxPoint x="-480" y="1039.5" as="targetPoint"/>
                        <Array as="points"/>
                    </mxGeometry>
                </mxCell>
                <mxCell id="33" value="" style="endArrow=none;html=1;" edge="1" parent="1">
                    <mxGeometry width="50" height="50" relative="1" as="geometry">
                        <mxPoint x="-550" y="1110" as="sourcePoint"/>
                        <mxPoint x="-550" y="1040" as="targetPoint"/>
                    </mxGeometry>
                </mxCell>
                <mxCell id="34" value="imc&amp;lt;=40" style="rhombus;whiteSpace=wrap;html=1;fillColor=#FF66FF;" vertex="1" parent="1">
                    <mxGeometry x="-590" y="1110" width="80" height="80" as="geometry"/>
                </mxCell>
                <mxCell id="35" value="" style="endArrow=none;html=1;exitX=1;exitY=0.5;exitDx=0;exitDy=0;" edge="1" parent="1" source="7">
                    <mxGeometry width="50" height="50" relative="1" as="geometry">
                        <mxPoint x="290" y="430" as="sourcePoint"/>
                        <mxPoint x="560" y="380" as="targetPoint"/>
                    </mxGeometry>
                </mxCell>
                <mxCell id="39" value="" style="endArrow=none;html=1;" edge="1" parent="1">
                    <mxGeometry width="50" height="50" relative="1" as="geometry">
                        <mxPoint x="560" y="420" as="sourcePoint"/>
                        <mxPoint x="560" y="380" as="targetPoint"/>
                    </mxGeometry>
                </mxCell>
                <mxCell id="40" value="resultado" style="rounded=0;whiteSpace=wrap;html=1;fillColor=#990099;" vertex="1" parent="1">
                    <mxGeometry x="510" y="420" width="120" height="60" as="geometry"/>
                </mxCell>
                <mxCell id="41" value="" style="endArrow=none;html=1;" edge="1" parent="1">
                    <mxGeometry width="50" height="50" relative="1" as="geometry">
                        <mxPoint x="150" y="489.5" as="sourcePoint"/>
                        <mxPoint x="400" y="490" as="targetPoint"/>
                    </mxGeometry>
                </mxCell>
                <mxCell id="42" value="" style="endArrow=none;html=1;" edge="1" parent="1">
                    <mxGeometry width="50" height="50" relative="1" as="geometry">
                        <mxPoint x="400" y="530" as="sourcePoint"/>
                        <mxPoint x="400" y="490" as="targetPoint"/>
                        <Array as="points">
                            <mxPoint x="400" y="520"/>
                        </Array>
                    </mxGeometry>
                </mxCell>
                <mxCell id="43" value="resultado" style="rounded=0;whiteSpace=wrap;html=1;fillColor=#990099;" vertex="1" parent="1">
                    <mxGeometry x="340" y="530" width="120" height="60" as="geometry"/>
                </mxCell>
                <mxCell id="44" value="" style="endArrow=none;html=1;" edge="1" parent="1">
                    <mxGeometry width="50" height="50" relative="1" as="geometry">
                        <mxPoint x="40" y="599.5" as="sourcePoint"/>
                        <mxPoint x="220" y="600" as="targetPoint"/>
                    </mxGeometry>
                </mxCell>
                <mxCell id="45" value="" style="endArrow=none;html=1;" edge="1" parent="1">
                    <mxGeometry width="50" height="50" relative="1" as="geometry">
                        <mxPoint x="220" y="640" as="sourcePoint"/>
                        <mxPoint x="220" y="600" as="targetPoint"/>
                        <Array as="points">
                            <mxPoint x="220" y="630"/>
                        </Array>
                    </mxGeometry>
                </mxCell>
                <mxCell id="46" value="resultado" style="rounded=0;whiteSpace=wrap;html=1;fillColor=#990099;" vertex="1" parent="1">
                    <mxGeometry x="160" y="640" width="120" height="60" as="geometry"/>
                </mxCell>
                <mxCell id="47" value="" style="endArrow=none;html=1;" edge="1" parent="1">
                    <mxGeometry width="50" height="50" relative="1" as="geometry">
                        <mxPoint x="-70" y="709.5" as="sourcePoint"/>
                        <mxPoint x="60" y="710" as="targetPoint"/>
                    </mxGeometry>
                </mxCell>
                <mxCell id="48" value="" style="endArrow=none;html=1;" edge="1" parent="1">
                    <mxGeometry width="50" height="50" relative="1" as="geometry">
                        <mxPoint x="60" y="750" as="sourcePoint"/>
                        <mxPoint x="60" y="710" as="targetPoint"/>
                        <Array as="points">
                            <mxPoint x="60" y="740"/>
                        </Array>
                    </mxGeometry>
                </mxCell>
                <mxCell id="49" value="resultado" style="rounded=0;whiteSpace=wrap;html=1;fillColor=#990099;" vertex="1" parent="1">
                    <mxGeometry y="750" width="120" height="60" as="geometry"/>
                </mxCell>
                <mxCell id="50" value="" style="endArrow=none;html=1;" edge="1" parent="1">
                    <mxGeometry width="50" height="50" relative="1" as="geometry">
                        <mxPoint x="-180" y="819.5" as="sourcePoint"/>
                        <mxPoint x="-50" y="820" as="targetPoint"/>
                    </mxGeometry>
                </mxCell>
                <mxCell id="51" value="" style="endArrow=none;html=1;" edge="1" parent="1">
                    <mxGeometry width="50" height="50" relative="1" as="geometry">
                        <mxPoint x="-50" y="860" as="sourcePoint"/>
                        <mxPoint x="-50" y="820" as="targetPoint"/>
                        <Array as="points">
                            <mxPoint x="-50" y="850"/>
                        </Array>
                    </mxGeometry>
                </mxCell>
                <mxCell id="52" value="resultado" style="rounded=0;whiteSpace=wrap;html=1;fillColor=#990099;" vertex="1" parent="1">
                    <mxGeometry x="-110" y="860" width="120" height="60" as="geometry"/>
                </mxCell>
                <mxCell id="53" value="" style="endArrow=none;html=1;" edge="1" parent="1">
                    <mxGeometry width="50" height="50" relative="1" as="geometry">
                        <mxPoint x="-290" y="929.5" as="sourcePoint"/>
                        <mxPoint x="-160" y="930" as="targetPoint"/>
                    </mxGeometry>
                </mxCell>
                <mxCell id="54" value="" style="endArrow=none;html=1;" edge="1" parent="1">
                    <mxGeometry width="50" height="50" relative="1" as="geometry">
                        <mxPoint x="-160" y="970" as="sourcePoint"/>
                        <mxPoint x="-160" y="930" as="targetPoint"/>
                        <Array as="points">
                            <mxPoint x="-160" y="960"/>
                        </Array>
                    </mxGeometry>
                </mxCell>
                <mxCell id="55" value="resultado" style="rounded=0;whiteSpace=wrap;html=1;fillColor=#990099;" vertex="1" parent="1">
                    <mxGeometry x="-220" y="970" width="120" height="60" as="geometry"/>
                </mxCell>
                <mxCell id="56" value="" style="endArrow=none;html=1;" edge="1" parent="1">
                    <mxGeometry width="50" height="50" relative="1" as="geometry">
                        <mxPoint x="-400" y="1039.5" as="sourcePoint"/>
                        <mxPoint x="-270" y="1040" as="targetPoint"/>
                    </mxGeometry>
                </mxCell>
                <mxCell id="57" value="" style="endArrow=none;html=1;" edge="1" parent="1">
                    <mxGeometry width="50" height="50" relative="1" as="geometry">
                        <mxPoint x="-270" y="1080" as="sourcePoint"/>
                        <mxPoint x="-270" y="1040" as="targetPoint"/>
                        <Array as="points">
                            <mxPoint x="-270" y="1070"/>
                        </Array>
                    </mxGeometry>
                </mxCell>
                <mxCell id="58" value="resultado" style="rounded=0;whiteSpace=wrap;html=1;fillColor=#990099;" vertex="1" parent="1">
                    <mxGeometry x="-330" y="1080" width="120" height="60" as="geometry"/>
                </mxCell>
                <mxCell id="59" value="" style="endArrow=none;html=1;" edge="1" parent="1">
                    <mxGeometry width="50" height="50" relative="1" as="geometry">
                        <mxPoint x="-510" y="1149.5" as="sourcePoint"/>
                        <mxPoint x="-380" y="1150" as="targetPoint"/>
                    </mxGeometry>
                </mxCell>
                <mxCell id="60" value="" style="endArrow=none;html=1;" edge="1" parent="1">
                    <mxGeometry width="50" height="50" relative="1" as="geometry">
                        <mxPoint x="-380" y="1190" as="sourcePoint"/>
                        <mxPoint x="-380" y="1150" as="targetPoint"/>
                        <Array as="points">
                            <mxPoint x="-380" y="1180"/>
                        </Array>
                    </mxGeometry>
                </mxCell>
                <mxCell id="61" value="resultado" style="rounded=0;whiteSpace=wrap;html=1;fillColor=#990099;" vertex="1" parent="1">
                    <mxGeometry x="-440" y="1190" width="120" height="60" as="geometry"/>
                </mxCell>
                <mxCell id="62" value="" style="endArrow=none;html=1;" edge="1" parent="1">
                    <mxGeometry width="50" height="50" relative="1" as="geometry">
                        <mxPoint x="580" y="1290" as="sourcePoint"/>
                        <mxPoint x="580" y="480" as="targetPoint"/>
                    </mxGeometry>
                </mxCell>
                <mxCell id="63" value="" style="endArrow=none;html=1;" edge="1" parent="1">
                    <mxGeometry width="50" height="50" relative="1" as="geometry">
                        <mxPoint x="-380" y="1290" as="sourcePoint"/>
                        <mxPoint x="-380" y="1250" as="targetPoint"/>
                        <Array as="points">
                            <mxPoint x="-380" y="1280"/>
                        </Array>
                    </mxGeometry>
                </mxCell>
                <mxCell id="64" value="" style="endArrow=none;html=1;" edge="1" parent="1">
                    <mxGeometry width="50" height="50" relative="1" as="geometry">
                        <mxPoint x="-380" y="1290" as="sourcePoint"/>
                        <mxPoint x="580" y="1290" as="targetPoint"/>
                    </mxGeometry>
                </mxCell>
                <mxCell id="65" value="" style="endArrow=none;html=1;" edge="1" parent="1">
                    <mxGeometry width="50" height="50" relative="1" as="geometry">
                        <mxPoint x="-280" y="1290" as="sourcePoint"/>
                        <mxPoint x="-280" y="1140" as="targetPoint"/>
                        <Array as="points">
                            <mxPoint x="-280" y="1170"/>
                        </Array>
                    </mxGeometry>
                </mxCell>
                <mxCell id="66" value="" style="endArrow=none;html=1;" edge="1" parent="1">
                    <mxGeometry width="50" height="50" relative="1" as="geometry">
                        <mxPoint x="-160" y="1290" as="sourcePoint"/>
                        <mxPoint x="-160.5" y="1030" as="targetPoint"/>
                        <Array as="points">
                            <mxPoint x="-160.5" y="1060"/>
                        </Array>
                    </mxGeometry>
                </mxCell>
                <mxCell id="67" value="" style="endArrow=none;html=1;" edge="1" parent="1">
                    <mxGeometry width="50" height="50" relative="1" as="geometry">
                        <mxPoint x="-40" y="1290" as="sourcePoint"/>
                        <mxPoint x="-40" y="920" as="targetPoint"/>
                        <Array as="points">
                            <mxPoint x="-40" y="950"/>
                        </Array>
                    </mxGeometry>
                </mxCell>
                <mxCell id="68" value="" style="endArrow=none;html=1;" edge="1" parent="1">
                    <mxGeometry width="50" height="50" relative="1" as="geometry">
                        <mxPoint x="60" y="1290" as="sourcePoint"/>
                        <mxPoint x="59.5" y="810" as="targetPoint"/>
                        <Array as="points">
                            <mxPoint x="59.5" y="840"/>
                        </Array>
                    </mxGeometry>
                </mxCell>
                <mxCell id="69" value="" style="endArrow=none;html=1;" edge="1" parent="1">
                    <mxGeometry width="50" height="50" relative="1" as="geometry">
                        <mxPoint x="222" y="1290" as="sourcePoint"/>
                        <mxPoint x="222" y="700" as="targetPoint"/>
                        <Array as="points">
                            <mxPoint x="222" y="730"/>
                        </Array>
                    </mxGeometry>
                </mxCell>
                <mxCell id="70" value="" style="endArrow=none;html=1;" edge="1" parent="1">
                    <mxGeometry width="50" height="50" relative="1" as="geometry">
                        <mxPoint x="400" y="1290" as="sourcePoint"/>
                        <mxPoint x="399.5" y="590" as="targetPoint"/>
                        <Array as="points">
                            <mxPoint x="399.5" y="620"/>
                        </Array>
                    </mxGeometry>
                </mxCell>
                <mxCell id="71" value="" style="endArrow=none;html=1;" edge="1" parent="1">
                    <mxGeometry width="50" height="50" relative="1" as="geometry">
                        <mxPoint x="-550" y="1320" as="sourcePoint"/>
                        <mxPoint x="-550.5" y="1190" as="targetPoint"/>
                    </mxGeometry>
                </mxCell>
                <mxCell id="72" value="" style="endArrow=none;html=1;" edge="1" parent="1">
                    <mxGeometry width="50" height="50" relative="1" as="geometry">
                        <mxPoint x="-550" y="1320" as="sourcePoint"/>
                        <mxPoint x="60" y="1320" as="targetPoint"/>
                    </mxGeometry>
                </mxCell>
                <mxCell id="73" value="" style="endArrow=none;html=1;" edge="1" parent="1">
                    <mxGeometry width="50" height="50" relative="1" as="geometry">
                        <mxPoint x="59.5" y="1360" as="sourcePoint"/>
                        <mxPoint x="59.5" y="1290" as="targetPoint"/>
                    </mxGeometry>
                </mxCell>
                <mxCell id="74" value="print&lt;br&gt;(resultado)" style="shape=document;whiteSpace=wrap;html=1;boundedLbl=1;fillColor=#006633;" vertex="1" parent="1">
                    <mxGeometry y="1360" width="120" height="80" as="geometry"/>
                </mxCell>
                <mxCell id="75" value="" style="endArrow=none;html=1;" edge="1" parent="1">
                    <mxGeometry width="50" height="50" relative="1" as="geometry">
                        <mxPoint x="60" y="1500" as="sourcePoint"/>
                        <mxPoint x="59.5" y="1430" as="targetPoint"/>
                        <Array as="points">
                            <mxPoint x="59.5" y="1460"/>
                        </Array>
                    </mxGeometry>
                </mxCell>
                <mxCell id="76" value="fin&amp;nbsp;" style="ellipse;whiteSpace=wrap;html=1;fillColor=#006666;" vertex="1" parent="1">
                    <mxGeometry x="5" y="1500" width="110" height="80" as="geometry"/>
                </mxCell>
                <mxCell id="78" value="false" style="text;html=1;align=center;verticalAlign=middle;resizable=0;points=[];autosize=1;strokeColor=none;fillColor=none;" vertex="1" parent="1">
                    <mxGeometry x="125" y="355" width="50" height="30" as="geometry"/>
                </mxCell>
                <mxCell id="80" value="true" style="text;html=1;align=center;verticalAlign=middle;resizable=0;points=[];autosize=1;strokeColor=none;fillColor=none;" vertex="1" parent="1">
                    <mxGeometry x="265" y="355" width="40" height="30" as="geometry"/>
                </mxCell>
                <mxCell id="81" value="false" style="text;html=1;align=center;verticalAlign=middle;resizable=0;points=[];autosize=1;strokeColor=none;fillColor=none;" vertex="1" parent="1">
                    <mxGeometry x="20" y="465" width="50" height="30" as="geometry"/>
                </mxCell>
                <mxCell id="82" value="true" style="text;html=1;align=center;verticalAlign=middle;resizable=0;points=[];autosize=1;strokeColor=none;fillColor=none;" vertex="1" parent="1">
                    <mxGeometry x="160" y="465" width="40" height="30" as="geometry"/>
                </mxCell>
                <mxCell id="83" value="false" style="text;html=1;align=center;verticalAlign=middle;resizable=0;points=[];autosize=1;strokeColor=none;fillColor=none;" vertex="1" parent="1">
                    <mxGeometry x="-90" y="575" width="50" height="30" as="geometry"/>
                </mxCell>
                <mxCell id="84" value="true" style="text;html=1;align=center;verticalAlign=middle;resizable=0;points=[];autosize=1;strokeColor=none;fillColor=none;" vertex="1" parent="1">
                    <mxGeometry x="50" y="575" width="40" height="30" as="geometry"/>
                </mxCell>
                <mxCell id="85" value="false" style="text;html=1;align=center;verticalAlign=middle;resizable=0;points=[];autosize=1;strokeColor=none;fillColor=none;" vertex="1" parent="1">
                    <mxGeometry x="-195" y="685" width="50" height="30" as="geometry"/>
                </mxCell>
                <mxCell id="86" value="true" style="text;html=1;align=center;verticalAlign=middle;resizable=0;points=[];autosize=1;strokeColor=none;fillColor=none;" vertex="1" parent="1">
                    <mxGeometry x="-70" y="685" width="40" height="30" as="geometry"/>
                </mxCell>
                <mxCell id="87" value="false" style="text;html=1;align=center;verticalAlign=middle;resizable=0;points=[];autosize=1;strokeColor=none;fillColor=none;" vertex="1" parent="1">
                    <mxGeometry x="-310" y="790" width="50" height="30" as="geometry"/>
                </mxCell>
                <mxCell id="88" value="true" style="text;html=1;align=center;verticalAlign=middle;resizable=0;points=[];autosize=1;strokeColor=none;fillColor=none;" vertex="1" parent="1">
                    <mxGeometry x="-180" y="785" width="40" height="30" as="geometry"/>
                </mxCell>
                <mxCell id="89" value="false" style="text;html=1;align=center;verticalAlign=middle;resizable=0;points=[];autosize=1;strokeColor=none;fillColor=none;" vertex="1" parent="1">
                    <mxGeometry x="-415" y="895" width="50" height="30" as="geometry"/>
                </mxCell>
                <mxCell id="90" value="true" style="text;html=1;align=center;verticalAlign=middle;resizable=0;points=[];autosize=1;strokeColor=none;fillColor=none;" vertex="1" parent="1">
                    <mxGeometry x="-290" y="895" width="40" height="30" as="geometry"/>
                </mxCell>
                <mxCell id="91" value="false" style="text;html=1;align=center;verticalAlign=middle;resizable=0;points=[];autosize=1;strokeColor=none;fillColor=none;" vertex="1" parent="1">
                    <mxGeometry x="-535" y="1005" width="50" height="30" as="geometry"/>
                </mxCell>
                <mxCell id="92" value="true" style="text;html=1;align=center;verticalAlign=middle;resizable=0;points=[];autosize=1;strokeColor=none;fillColor=none;" vertex="1" parent="1">
                    <mxGeometry x="-390" y="1005" width="40" height="30" as="geometry"/>
                </mxCell>
                <mxCell id="93" value="true" style="text;html=1;align=center;verticalAlign=middle;resizable=0;points=[];autosize=1;strokeColor=none;fillColor=none;" vertex="1" parent="1">
                    <mxGeometry x="-510" y="1125" width="40" height="30" as="geometry"/>
                </mxCell>
            </root>
        </mxGraphModel>
    </diagram>
</mxfile>